<svg id="svg" version="1.1" xmlns="http://www.w3.org/2000/svg" xmlns:xlink="http://www.w3.org/1999/xlink" width="400" height="400" viewBox="0, 0, 400,400"><g id="svgg"><path id="path0" d="M149.917 35.929 C 148.724 36.528,147.570 37.560,147.352 38.221 C 146.849 39.746,149.248 39.791,150.753 38.285 C 152.795 36.244,153.192 38.309,152.067 45.121 C 150.468 54.799,150.633 73.315,152.355 77.435 C 154.750 83.166,156.193 81.676,160.534 68.990 C 168.524 45.643,176.784 31.555,176.301 42.102 C 176.125 45.919,178.461 46.332,179.832 42.726 C 182.070 36.839,174.402 33.809,170.339 38.975 C 168.050 41.884,160.691 59.222,157.600 68.984 C 156.217 73.352,155.111 75.504,154.635 74.754 C 153.347 72.726,153.767 54.553,155.305 45.734 C 156.107 41.133,156.546 37.018,156.281 36.589 C 155.401 35.164,152.115 34.823,149.917 35.929 M49.360 41.045 C 43.373 57.719,40.776 62.191,36.030 64.004 C 31.803 65.618,29.054 67.836,30.048 68.830 C 30.330 69.112,32.189 68.663,34.178 67.832 C 38.800 65.901,38.884 66.040,36.993 72.544 C 35.440 77.888,35.580 80.769,37.393 80.769 C 37.897 80.769,38.586 79.363,38.925 77.644 C 41.336 65.426,42.425 63.954,50.826 61.568 C 54.519 60.519,54.500 59.863,51.103 71.321 C 49.487 76.773,49.395 78.003,50.493 79.494 C 51.966 81.495,51.877 81.664,53.869 73.077 C 55.822 64.657,58.301 59.615,60.486 59.615 C 63.161 59.615,64.061 57.669,61.674 57.045 C 59.763 56.545,59.812 56.293,63.092 49.778 C 65.484 45.030,66.189 42.728,65.473 42.012 C 64.175 40.714,64.379 40.441,59.755 49.683 C 55.906 57.377,51.532 60.577,44.866 60.577 C 44.585 60.577,46.058 56.943,48.139 52.503 C 50.220 48.062,51.923 43.544,51.923 42.463 C 51.923 39.838,50.147 38.855,49.360 41.045 M192.076 45.913 C 189.572 48.547,181.731 63.748,181.731 65.969 C 181.731 66.611,180.325 68.330,178.606 69.788 C 176.039 71.965,175.858 72.342,177.592 71.900 C 179.439 71.429,179.741 71.791,179.996 74.789 C 180.475 80.409,187.028 77.702,188.733 71.179 C 189.504 68.232,187.748 68.846,186.058 72.115 C 185.237 73.702,183.920 75.000,183.130 75.000 C 180.585 75.000,182.685 70.068,187.576 64.560 C 198.246 52.543,202.489 34.962,192.076 45.913 M194.674 49.760 C 192.447 55.092,188.939 60.808,186.588 62.936 L 184.515 64.812 185.480 62.274 C 187.137 57.916,191.497 49.596,193.047 47.837 C 195.510 45.040,196.270 45.938,194.674 49.760 M310.902 48.448 C 308.605 50.423,308.414 50.957,309.524 52.294 C 310.963 54.027,313.992 54.360,314.904 52.885 C 315.231 52.356,314.792 51.923,313.929 51.923 C 310.984 51.923,312.784 48.576,315.873 48.307 C 321.401 47.826,321.470 48.691,316.937 61.592 C 310.863 78.874,310.776 79.487,314.286 80.258 C 329.086 83.509,339.343 63.129,328.409 52.194 C 326.144 49.930,324.559 48.027,324.886 47.966 C 325.875 47.782,317.943 46.269,315.679 46.209 C 314.518 46.179,312.369 47.186,310.902 48.448 M234.509 49.686 C 233.684 50.652,232.065 53.020,230.911 54.948 C 229.642 57.069,227.776 58.714,226.187 59.113 C 223.845 59.701,223.734 59.899,225.166 60.946 C 226.647 62.029,226.656 62.537,225.275 67.497 C 222.109 78.873,227.997 82.936,233.489 73.164 C 235.996 68.703,234.672 67.692,232.076 72.085 C 228.487 78.162,225.793 75.827,227.780 68.361 C 229.469 62.014,231.221 59.798,235.131 59.065 C 239.048 58.330,239.149 56.089,235.244 56.560 L 232.675 56.871 234.692 53.451 C 236.969 49.593,236.840 46.955,234.509 49.686 M244.207 51.505 C 242.090 57.073,243.435 60.274,246.572 57.137 C 249.742 53.966,250.383 51.696,248.496 50.317 C 246.013 48.501,245.271 48.707,244.207 51.505 M248.106 53.791 C 246.411 56.960,244.231 58.183,244.231 55.966 C 244.231 52.593,245.212 51.147,247.155 51.655 C 248.556 52.021,248.782 52.528,248.106 53.791 M277.439 54.124 C 277.743 55.335,277.545 57.498,277.000 58.932 C 275.853 61.949,277.282 62.538,278.812 59.679 C 280.361 56.785,280.069 51.923,278.347 51.923 C 277.305 51.923,277.045 52.554,277.439 54.124 M326.257 53.641 C 334.289 62.516,328.754 78.846,317.713 78.846 C 314.404 78.846,314.802 75.596,319.825 61.611 C 323.518 51.331,323.823 50.952,326.257 53.641 M65.120 61.300 C 58.869 68.207,60.635 81.779,67.005 75.794 C 68.229 74.644,69.231 74.211,69.231 74.832 C 69.231 75.453,70.106 76.836,71.175 77.906 L 73.119 79.850 71.058 86.635 C 69.269 92.526,69.725 99.674,71.538 94.151 C 71.784 93.402,73.177 89.030,74.633 84.435 C 76.726 77.831,77.499 76.382,78.327 77.514 C 80.533 80.531,90.385 70.955,90.385 65.794 C 90.385 63.290,85.341 60.217,82.639 61.075 C 81.176 61.539,75.000 73.582,75.000 75.970 C 75.000 77.377,73.482 77.128,72.130 75.499 C 71.185 74.359,71.291 73.120,72.661 69.309 C 74.332 64.664,73.486 60.578,71.154 62.019 C 70.745 62.272,69.876 61.835,69.222 61.047 C 67.689 59.200,66.981 59.243,65.120 61.300 M168.016 60.817 C 165.693 62.581,164.423 66.747,164.423 72.602 C 164.423 78.899,165.303 79.600,169.149 76.363 C 171.972 73.988,172.115 73.963,172.115 75.842 C 172.115 77.523,174.572 79.808,176.379 79.808 C 177.634 79.808,176.796 77.080,175.373 76.534 C 174.187 76.079,173.974 75.208,174.466 72.825 C 176.290 63.987,176.258 62.500,174.242 62.500 C 173.186 62.500,172.072 61.851,171.768 61.058 C 171.093 59.300,170.097 59.237,168.016 60.817 M97.326 61.224 C 93.468 62.774,82.057 95.192,85.369 95.192 C 85.784 95.192,87.362 91.068,88.877 86.027 C 91.449 77.465,93.269 73.868,93.269 77.347 C 93.269 81.479,104.089 72.777,105.023 67.895 C 105.582 64.967,100.756 59.450,98.688 60.653 C 98.616 60.695,98.004 60.951,97.326 61.224 M110.906 63.743 C 104.025 72.491,105.434 82.041,112.496 74.523 C 113.737 73.203,114.926 72.297,115.139 72.511 C 116.070 73.442,112.223 78.940,109.742 80.223 C 103.500 83.451,99.907 89.502,101.957 93.332 C 104.623 98.315,111.154 93.381,114.049 84.198 C 115.479 79.662,116.138 78.842,119.379 77.569 C 121.634 76.683,123.077 75.483,123.077 74.494 C 123.077 73.433,122.577 73.073,121.635 73.455 C 120.841 73.776,119.468 74.330,118.583 74.686 C 117.429 75.151,117.133 74.946,117.537 73.965 C 117.846 73.212,119.065 70.314,120.245 67.525 C 122.694 61.738,121.926 59.688,118.878 63.880 C 110.929 74.814,104.839 78.204,111.670 67.892 C 114.996 62.870,114.351 59.363,110.906 63.743 M197.973 62.777 C 191.109 68.004,189.772 76.746,195.604 78.271 C 197.519 78.772,203.421 76.466,204.439 74.819 C 205.540 73.038,203.934 72.916,201.135 74.570 C 198.329 76.227,195.192 75.976,195.192 74.093 C 195.192 73.561,196.483 72.459,198.061 71.643 C 201.208 70.016,204.286 65.033,203.465 62.894 C 202.830 61.240,200.069 61.181,197.973 62.777 M238.983 66.267 C 236.237 71.684,234.755 78.846,236.379 78.846 C 236.955 78.846,237.920 77.010,238.525 74.765 C 239.129 72.520,240.444 69.076,241.446 67.111 C 243.480 63.125,243.730 61.538,242.324 61.538 C 241.804 61.538,240.300 63.666,238.983 66.267 M340.131 62.740 C 337.802 64.509,336.538 68.674,336.538 74.582 C 336.538 80.532,338.073 81.412,342.005 77.717 C 343.720 76.106,344.231 75.962,344.231 77.087 C 344.231 79.198,347.703 82.152,348.559 80.768 C 348.928 80.169,348.475 79.127,347.552 78.452 C 346.283 77.524,346.043 76.541,346.571 74.429 C 348.631 66.196,348.447 64.749,345.135 63.096 C 341.414 61.240,342.047 61.285,340.131 62.740 M67.958 63.848 C 67.229 65.746,68.325 66.536,69.887 65.239 C 74.268 61.603,71.003 69.183,66.304 73.558 L 63.206 76.442 63.752 70.847 C 64.283 65.406,65.597 62.500,67.528 62.500 C 68.049 62.500,68.242 63.107,67.958 63.848 M84.615 64.423 C 84.615 66.603,85.613 66.887,87.308 65.192 C 90.210 62.290,88.197 68.232,85.021 71.942 C 80.423 77.315,79.405 77.130,80.209 71.070 C 81.092 64.412,84.615 59.097,84.615 64.423 M101.034 65.842 C 105.093 64.554,102.144 70.856,96.737 75.023 C 94.989 76.370,94.934 76.207,95.369 70.964 C 95.866 64.972,98.290 60.363,98.870 64.306 C 99.107 65.913,99.633 66.287,101.034 65.842 M170.192 64.423 C 170.192 66.603,171.189 66.887,172.885 65.192 C 176.146 61.931,173.596 68.813,170.216 72.393 L 166.394 76.442 166.370 71.920 C 166.346 67.353,167.899 62.500,169.385 62.500 C 169.829 62.500,170.192 63.365,170.192 64.423 M208.777 70.325 C 207.092 74.628,205.924 78.360,206.181 78.617 C 207.443 79.879,209.309 77.616,210.925 72.862 C 212.185 69.154,213.536 67.110,215.492 65.955 C 218.595 64.122,219.022 64.844,216.751 68.086 C 213.221 73.125,213.249 79.808,216.800 79.808 C 217.801 79.808,218.009 78.950,217.609 76.483 C 217.221 74.091,217.642 72.188,219.112 69.698 C 222.619 63.752,221.282 60.820,216.283 63.495 C 215.001 64.182,214.423 64.182,214.423 63.495 C 214.423 59.987,211.384 63.663,208.777 70.325 M248.266 63.715 C 246.776 65.510,243.269 74.805,243.269 76.959 C 243.269 79.300,244.766 79.431,245.623 77.163 C 246.593 74.598,250.384 69.245,251.236 69.237 C 251.651 69.234,251.543 70.068,250.995 71.091 C 249.203 74.440,250.379 81.731,252.712 81.731 C 253.108 81.731,253.418 79.243,253.399 76.202 C 253.373 71.971,253.873 69.961,255.529 67.640 C 259.506 62.064,257.195 60.384,252.413 65.375 C 249.404 68.516,248.288 68.584,249.925 65.525 C 251.108 63.315,249.790 61.878,248.266 63.715 M282.692 64.423 C 280.292 66.824,280.299 67.250,282.834 72.468 C 285.058 77.046,284.686 80.145,281.974 79.630 C 280.956 79.437,280.168 78.266,279.984 76.674 C 279.601 73.353,276.923 73.102,276.923 76.388 C 276.923 80.873,281.984 82.910,285.685 79.914 L 287.928 78.097 285.693 73.325 C 284.464 70.701,283.616 67.732,283.810 66.729 C 284.269 64.343,288.098 64.203,287.698 66.587 C 287.531 67.584,288.020 68.269,288.900 68.269 C 290.660 68.269,290.873 65.296,289.231 63.654 C 287.517 61.940,284.863 62.253,282.692 64.423 M263.060 66.405 C 261.216 68.024,259.412 70.296,259.051 71.453 C 258.690 72.611,257.959 73.837,257.426 74.179 C 255.856 75.188,260.415 80.770,262.806 80.766 C 265.272 80.761,271.154 77.386,271.154 75.976 C 271.154 74.543,269.643 74.787,268.269 76.442 C 266.965 78.014,261.979 78.414,261.116 77.017 C 260.821 76.540,262.067 75.272,263.884 74.200 C 268.039 71.749,270.822 66.821,269.173 64.835 C 267.564 62.896,266.848 63.080,263.060 66.405 M343.363 67.740 C 343.904 68.310,344.231 68.220,344.231 67.500 C 344.231 66.865,344.663 66.346,345.192 66.346 C 347.399 66.346,345.893 70.543,342.332 74.316 L 338.510 78.365 338.486 74.248 C 338.457 69.367,341.366 61.773,342.065 64.904 C 342.301 65.962,342.885 67.238,343.363 67.740 M365.005 66.433 C 362.735 70.277,357.739 75.962,356.631 75.962 C 355.072 75.962,355.729 73.505,358.173 70.192 C 360.795 66.639,361.257 64.423,359.375 64.424 C 357.516 64.426,352.716 73.700,353.062 76.621 C 353.509 80.392,355.377 80.392,359.147 76.623 C 362.941 72.828,363.019 72.858,361.133 77.371 C 360.382 79.170,358.499 81.297,356.949 82.099 C 348.439 86.499,344.909 97.115,351.956 97.115 C 355.328 97.115,357.777 94.165,360.732 86.542 C 362.612 81.696,363.438 80.693,366.557 79.467 C 371.030 77.710,371.523 75.455,367.247 76.310 C 363.929 76.974,363.936 76.524,367.350 68.896 C 369.954 63.081,368.122 61.157,365.005 66.433 M200.962 65.716 C 200.962 66.428,200.204 67.660,199.279 68.455 C 194.961 72.163,193.764 71.306,197.185 66.957 C 199.353 64.201,200.962 63.673,200.962 65.716 M265.320 70.742 C 264.113 72.026,262.758 73.077,262.308 73.077 C 261.128 73.077,264.148 67.563,265.605 67.058 C 267.745 66.317,267.590 68.326,265.320 70.742 M110.676 85.706 C 108.660 91.490,103.846 94.698,103.846 90.258 C 103.846 88.264,110.332 81.166,111.285 82.118 C 111.547 82.380,111.273 83.994,110.676 85.706 M356.611 89.143 C 354.131 94.144,350.962 95.888,350.962 92.251 C 350.962 90.186,357.427 83.068,358.410 84.051 C 358.677 84.318,357.868 86.610,356.611 89.143 M211.058 120.533 C 207.678 122.091,203.832 125.545,201.480 129.134 L 199.810 131.684 196.739 129.342 C 179.698 116.343,158.296 121.623,155.263 139.574 L 154.663 143.128 144.340 142.583 C 124.815 141.553,117.113 147.932,115.696 166.305 C 115.154 173.329,114.914 174.039,113.079 174.048 C 99.427 174.111,85.460 193.302,89.202 206.855 L 90.163 210.334 83.783 210.983 C 48.908 214.529,34.502 227.278,41.451 248.446 C 48.237 269.117,63.462 270.019,85.861 251.079 L 95.112 243.256 93.769 247.061 C 84.716 272.722,95.787 302.614,120.699 319.772 C 124.917 322.677,125.967 323.894,125.589 325.438 C 125.324 326.519,124.811 329.680,124.448 332.462 C 123.824 337.242,123.570 337.618,119.827 339.279 C 111.211 343.104,104.862 354.214,104.749 365.661 C 104.691 371.545,104.630 371.678,100.662 374.556 C 94.357 379.129,85.723 400.000,90.137 400.000 C 90.666 400.000,91.399 397.728,91.766 394.952 C 92.950 386.010,97.984 377.551,103.961 374.460 C 106.609 373.090,106.731 372.735,106.731 366.358 C 106.731 353.877,113.260 342.912,122.315 340.185 L 126.442 338.942 126.548 333.495 C 126.726 324.399,126.729 324.397,135.688 328.902 C 179.959 351.161,241.653 348.623,282.008 322.882 C 284.540 321.266,286.767 320.109,286.957 320.309 C 288.016 321.424,290.385 331.712,290.385 335.194 C 290.385 338.924,290.625 339.323,293.214 339.892 C 302.359 341.900,308.827 351.785,309.448 364.701 C 309.831 372.660,310.001 373.228,312.379 374.470 C 318.539 377.690,323.642 386.273,324.699 395.193 C 325.309 400.351,326.923 401.819,326.923 397.217 C 326.923 388.532,317.520 372.115,312.546 372.115 C 311.950 372.115,311.538 369.627,311.538 366.018 C 311.538 353.773,306.471 344.204,297.718 339.921 L 292.544 337.390 291.875 331.477 C 291.507 328.224,290.584 324.075,289.824 322.257 L 288.442 318.950 295.462 312.119 C 314.295 293.793,320.779 271.741,313.829 249.659 C 313.481 248.554,315.775 249.946,319.855 253.316 C 340.281 270.190,355.983 268.102,362.040 247.706 C 368.059 227.440,354.563 215.221,321.875 211.337 L 312.500 210.223 312.500 206.729 C 312.500 197.725,307.018 187.546,299.654 182.876 C 295.814 180.441,295.597 180.076,296.385 177.393 C 303.638 152.721,278.268 131.546,251.442 139.882 C 249.931 140.352,249.117 139.731,247.641 136.984 C 240.972 124.576,221.391 115.770,211.058 120.533 M231.870 123.726 C 237.347 126.707,242.502 132.177,245.432 138.116 L 247.396 142.097 245.415 144.879 C 239.363 153.378,244.904 165.588,255.456 167.003 C 260.317 167.655,265.118 165.340,265.973 161.931 C 266.955 158.020,264.858 156.947,263.053 160.438 C 258.518 169.206,246.154 164.031,246.154 153.365 C 246.154 134.603,283.564 136.935,292.424 156.250 C 295.525 163.009,294.399 178.524,290.832 178.187 C 289.793 178.089,286.779 177.789,284.135 177.520 L 279.327 177.031 283.654 178.047 C 286.034 178.606,289.563 179.453,291.497 179.929 C 300.728 182.203,308.962 194.350,309.019 205.778 C 309.098 221.725,296.981 231.691,278.922 230.534 C 273.666 230.197,272.305 230.324,274.038 230.988 C 278.377 232.651,290.429 232.071,296.068 229.929 C 302.486 227.490,302.323 227.381,306.887 237.121 C 333.559 294.038,280.023 345.205,197.115 342.035 C 116.981 338.972,73.077 287.466,102.056 230.517 L 103.897 226.900 106.912 228.459 C 111.103 230.626,120.196 231.287,125.477 229.809 L 129.847 228.585 133.866 232.565 C 141.941 240.560,159.390 243.621,169.135 238.751 L 173.366 236.636 177.282 239.988 C 187.954 249.123,209.533 248.843,216.455 239.481 L 218.533 236.671 223.811 239.650 C 235.602 246.304,253.175 241.805,260.498 230.258 L 263.076 226.193 266.394 227.960 C 271.167 230.502,272.367 230.191,267.788 227.599 C 264.313 225.631,263.883 224.960,263.324 220.643 C 261.194 204.182,246.656 192.525,238.121 200.435 C 235.269 203.078,235.125 203.725,236.644 207.060 C 237.624 209.210,241.092 211.538,243.314 211.538 C 245.094 211.538,244.200 209.910,241.827 208.829 C 237.082 206.667,240.092 200.000,245.813 200.000 C 250.220 200.000,257.523 208.804,259.722 216.767 C 262.833 228.036,249.847 240.385,234.887 240.385 C 223.861 240.385,216.814 233.190,214.874 219.952 C 214.411 216.791,213.753 215.385,212.738 215.385 C 210.741 215.385,211.677 223.344,214.396 229.491 L 216.384 233.983 214.025 237.548 C 210.707 242.561,204.823 245.192,196.933 245.192 C 181.885 245.192,174.368 238.531,173.186 224.149 C 172.822 219.722,172.137 216.829,171.394 216.584 C 169.928 216.098,169.715 225.753,171.087 230.537 C 174.122 241.120,147.374 243.320,136.696 233.366 C 121.537 219.237,130.716 188.867,147.499 197.619 C 149.032 198.419,150.478 198.881,150.713 198.646 C 152.088 197.271,144.425 195.018,139.707 195.409 C 128.054 196.375,122.454 208.779,127.432 222.596 C 128.194 224.712,128.824 226.510,128.832 226.592 C 128.898 227.279,119.114 229.806,116.415 229.798 C 105.452 229.768,93.490 217.549,91.710 204.560 C 89.241 186.545,111.545 169.041,125.046 178.398 C 127.155 179.859,129.114 180.821,129.400 180.536 C 130.158 179.778,124.828 176.196,121.816 175.440 C 119.307 174.811,119.231 174.586,119.231 167.805 C 119.231 151.722,126.127 144.232,140.865 144.307 C 153.178 144.370,155.107 145.064,156.036 149.761 C 157.910 159.235,166.992 163.421,175.000 158.503 C 179.783 155.565,176.748 154.899,171.541 157.743 C 164.164 161.773,158.344 155.579,158.310 143.661 C 158.257 125.093,177.735 117.361,193.750 129.593 L 198.558 133.265 198.222 140.126 C 197.848 147.753,199.357 153.846,201.620 153.846 C 202.649 153.846,202.878 153.342,202.381 152.163 C 194.183 132.712,213.736 113.856,231.870 123.726 M92.747 215.914 C 93.759 217.792,96.271 220.850,98.331 222.711 L 102.075 226.094 99.355 232.400 C 97.164 237.478,95.138 240.100,88.942 245.874 C 66.586 266.707,52.454 268.427,44.532 251.276 C 35.386 231.476,47.224 218.008,77.706 213.537 C 89.102 211.865,90.703 212.118,92.747 215.914 M332.692 214.833 C 359.559 220.573,368.884 236.850,356.246 255.948 C 346.541 270.613,319.532 259.010,307.809 235.139 L 303.289 225.934 305.937 223.397 C 307.393 222.002,309.358 218.934,310.302 216.581 L 312.019 212.301 319.231 212.899 C 323.197 213.228,329.255 214.098,332.692 214.833 M76.923 224.651 C 60.189 227.095,53.846 231.088,53.846 239.178 C 53.846 250.407,61.055 255.623,70.156 250.980 C 77.493 247.237,96.222 227.444,94.723 225.018 C 94.156 224.102,82.354 223.858,76.923 224.651 M307.692 224.964 C 307.692 229.822,330.735 251.288,337.267 252.514 C 350.888 255.069,354.121 234.270,341.024 228.339 C 333.401 224.886,307.692 222.283,307.692 224.964 M254.149 253.982 C 248.948 255.422,241.719 264.423,245.763 264.423 C 246.507 264.423,247.115 263.731,247.115 262.885 C 247.115 262.038,248.587 259.875,250.385 258.077 C 256.431 252.031,264.819 254.578,267.957 263.413 C 269.687 268.282,270.506 269.134,271.660 267.267 C 275.098 261.704,262.040 251.798,254.149 253.982 M148.517 255.638 C 143.829 258.496,138.956 268.269,142.218 268.269 C 143.371 268.269,143.688 267.617,144.631 263.295 C 147.005 252.416,159.823 252.241,165.993 263.004 C 167.666 265.922,168.690 263.915,167.273 260.494 C 164.713 254.314,154.868 251.764,148.517 255.638 M210.573 259.138 C 207.828 262.060,205.857 262.160,202.534 259.546 C 201.140 258.450,200.000 258.037,200.000 258.629 C 200.000 259.221,201.295 260.442,202.879 261.343 C 205.993 263.115,206.888 268.229,204.774 272.179 C 202.805 275.858,195.192 274.127,195.192 270.000 C 195.192 269.048,194.782 268.269,194.281 268.269 C 192.106 268.269,195.447 273.939,198.183 274.893 C 201.135 275.922,205.769 274.676,205.769 272.853 C 205.769 272.370,206.940 272.897,208.372 274.023 C 212.412 277.201,219.332 274.493,219.155 269.803 C 219.089 268.057,218.957 268.122,218.160 270.294 C 216.324 275.294,210.191 275.823,207.714 271.195 C 206.020 268.029,206.494 262.705,208.527 262.059 C 210.575 261.409,214.009 257.919,213.299 257.209 C 213.040 256.950,211.813 257.818,210.573 259.138 " stroke="none" fill="#000000" fill-rule="evenodd"></path></g></svg>